<?xml version="1.0" encoding="UTF-8" standalone="no"?>
<svg
   xmlns:dc="http://purl.org/dc/elements/1.1/"
   xmlns:cc="http://creativecommons.org/ns#"
   xmlns:rdf="http://www.w3.org/1999/02/22-rdf-syntax-ns#"
   xmlns:svg="http://www.w3.org/2000/svg"
   xmlns="http://www.w3.org/2000/svg"
   xmlns:sodipodi="http://sodipodi.sourceforge.net/DTD/sodipodi-0.dtd"
   xmlns:inkscape="http://www.inkscape.org/namespaces/inkscape"
   width="99.052948"
   height="81.995926"
   version="1.1"
   id="svg930"
   sodipodi:docname="fistsIcon.svg"
   inkscape:version="0.92.4 (unknown)">
  <metadata
     id="metadata936">
    <rdf:RDF>
      <cc:Work
         rdf:about="">
        <dc:format>image/svg+xml</dc:format>
        <dc:type
           rdf:resource="http://purl.org/dc/dcmitype/StillImage" />
        <dc:title></dc:title>
      </cc:Work>
    </rdf:RDF>
  </metadata>
  <defs
     id="defs934" />
  <sodipodi:namedview
     pagecolor="#ffffff"
     bordercolor="#666666"
     borderopacity="1"
     objecttolerance="10"
     gridtolerance="10"
     guidetolerance="10"
     inkscape:pageopacity="0"
     inkscape:pageshadow="2"
     inkscape:window-width="1920"
     inkscape:window-height="968"
     id="namedview932"
     showgrid="false"
     inkscape:zoom="2.0008232"
     inkscape:cx="80.161221"
     inkscape:cy="-13.302625"
     inkscape:window-x="0"
     inkscape:window-y="27"
     inkscape:window-maximized="1"
     inkscape:current-layer="g928"
     fit-margin-top="0"
     fit-margin-left="0"
     fit-margin-right="0"
     fit-margin-bottom="0" />
  <g
     id="g928"
     transform="translate(-14.466858,-23.001561)">
    <path
       d="m 108.96,50.12 c 0,0 -0.49,-4.08 -7.15,-8.33 -0.09,-1.17 -0.19,-2.28 -0.32,-3.3 -0.25,-2.01 0.56,-9.71 -12.82,-9.92 -4.31,-0.07 -6.4,0.91 -7.15,3.52 -0.66,0.24 -1.76,0.41 -2.61,-0.66 -1.29,-5.97 -5.21,-9.3 -12.54,-8.23 -8.34,1.22 -10.17,4.43 -10.94,8.22 h -0.05 c 0,0 -1.52,2.07 -3.07,0.94 -0.9,-2.5 -2.99,-3.69 -7.66,-3.18 -12.55,1.35 -12.34,9.55 -12.89,13.97 -0.39,0.22 -0.86,0.28 -1.4,-0.07 -0.8,-1.29 -2.28,-2.11 -4.91,-2.11 -6.25,0 -10.63,9.28 -10.94,12.97 -0.34,4.02 1.41,19.75 2.43,24.48 1.03,4.72 6.83,7.71 11.46,6.05 3.34,-1.2 6.04,-2.36 3.85,-9.2 -0.06,-0.19 -0.13,-0.43 -0.21,-0.68 l 1.17,0.16 c 0.61,4.84 2.38,10.61 9.46,10.57 3.56,-0.02 7.91,-2.2 8.45,-8.16 l 3.86,0.52 c 0.04,0.49 0.09,0.99 0.13,1.48 0.55,5.8 7.42,7.79 11.97,7.8 l -3.35,1.13 -4.37,-0.55 c 0,0 -8.66,1.96 -6.45,10.83 1.28,5.16 6.21,5.26 13.91,6.31 5.83,0.79 30.93,0.23 33.33,-3.1 0,0 11.64,-11.96 13.12,-21.83 0.98,-6.47 -1.02,-18.52 -4.31,-29.63 z"
       style="fill:#87c187;fill-opacity:1"
       id="path924"
       inkscape:connector-curvature="0" />
    <path
       d="m 104.62,43.85 c 0,0 -2.38,-1.73 -2.81,-2.04 0.66,8.85 0.28,21.28 0.08,26.35 -0.32,8.1 -1.64,15.45 -9.97,16.53 -3.84,0.5 -6.46,-0.59 -7.95,-2.53 -1.06,-2.71 -0.93,-6.94 -0.93,-6.94 0.33,-18.48 -0.94,-28.59 -0.94,-28.59 -0.18,-0.91 -0.19,-3.52 -1.22,-5.38 -1.32,-2.39 -1.96,0.13 -1.96,0.13 1.02,19.06 0.13,33.28 0.13,33.28 -0.1,5.56 -2.21,8.31 -3.82,9.61 -1.91,1.6 -8,1.93 -8,1.93 -12.1,0.25 -12.17,-9.31 -12.17,-9.31 0,0 -1.52,-9.63 -0.97,-31.24 0,0 -0.08,-3.08 -1.83,-1.97 0,0 -1.1,3.07 -1.31,6.48 0,0 -1.43,11.91 0.12,27.39 -0.69,5.68 -4.92,7.77 -8.4,7.79 -4.24,0.02 -6.57,-2.05 -7.89,-4.75 -0.88,-3.09 -2.52,-11.05 -2.35,-27.23 0,0 0.4,-3.82 -0.84,-3.13 0,0 -1.15,0.41 -1.97,6.22 0,0 -1.15,8.32 0.53,21.24 0.54,4.94 -0.72,6.46 -2.33,6.95 -3.57,0.97 -7.66,-0.63 -9.71,-3.58 1.56,2.89 4.79,7.11 10.36,6.89 0,0 3.72,-0.43 5.1,-2.31 3.07,5.05 11.88,3.89 11.88,3.89 4.16,-0.57 6.33,-2.64 7.47,-4.83 0,0 0.01,0.01 0.01,0.01 3.94,6.9 14.29,6.36 14.29,6.36 8.83,0 12.41,-3.23 13.87,-5.86 2.22,4.1 7.42,4.93 7.42,4.93 9.43,0.92 13.38,-6.55 13.38,-6.55 5.34,-10.28 3.65,-30.28 2.73,-39.74 z"
       style="fill:#12291f;fill-opacity:1"
       id="path926"
       inkscape:connector-curvature="0" />
  </g>
</svg>
